<?xml version="1.0" standalone="no"?>
<!DOCTYPE svg PUBLIC "-//W3C//DTD SVG 20010904//EN"
 "http://www.w3.org/TR/2001/REC-SVG-20010904/DTD/svg10.dtd">
<svg version="1.0" xmlns="http://www.w3.org/2000/svg"
 width="258.000000pt" height="145.000000pt" viewBox="0 0 258.000000 145.000000"
 preserveAspectRatio="xMidYMid meet">

<g transform="translate(0.000000,145.000000) scale(0.100000,-0.100000)"
fill="#000000" stroke="none">
<path d="M1913 1199 c-61 -14 -127 -78 -150 -142 -16 -46 -18 -87 -18 -343 l0
-290 30 -59 c20 -40 45 -69 73 -90 40 -28 51 -30 144 -33 123 -5 178 9 228 57
51 48 70 116 70 243 l0 98 -105 0 -105 0 0 -104 c0 -82 -3 -108 -16 -120 -19
-20 -54 -20 -80 -2 -18 13 -19 30 -22 258 -4 294 0 343 33 364 52 34 85 -13
85 -118 l0 -48 105 0 105 0 0 55 c0 129 -42 215 -125 255 -53 26 -183 36 -252
19z"/>
<path d="M292 718 l3 -473 191 0 c183 1 193 2 240 26 40 20 54 34 77 81 25 49
29 69 30 150 1 111 -15 154 -74 196 -21 15 -39 30 -39 33 0 3 12 11 26 17 15
7 33 31 46 58 17 40 20 62 16 145 -3 90 -6 102 -33 140 -55 78 -129 99 -346
99 l-139 0 2 -472z m289 293 c21 -17 24 -28 24 -89 0 -81 -19 -112 -67 -112
l-28 0 0 110 c0 109 0 110 24 110 13 0 34 -9 47 -19z m6 -386 c31 -22 44 -79
34 -143 -10 -64 -17 -72 -70 -79 l-41 -6 0 122 0 121 28 0 c15 0 37 -7 49 -15z"/>
<path d="M910 715 l0 -475 105 0 105 0 1 308 c0 169 2 303 5 297 2 -5 22 -140
44 -300 23 -159 45 -294 49 -298 4 -4 39 -7 77 -5 l68 3 42 310 42 310 1 -131
c0 -72 4 -213 8 -313 l6 -182 101 3 101 3 3 473 2 472 -167 -2 -168 -3 -26
-150 c-28 -163 -27 -163 -54 5 -9 52 -18 107 -21 123 l-6 27 -159 0 -159 0 0
-475z"/>
</g>
</svg>
